<svg width="24" height="24" viewBox="0 0 24 24" fill="none" xmlns="http://www.w3.org/2000/svg">
<path d="M17.8569 12.0003C17.8569 13.1837 18.8163 14.1431 19.9997 14.1431C21.1832 14.1431 22.1426 13.1837 22.1426 12.0003C22.1426 10.8168 21.1832 9.85742 19.9997 9.85742C18.8163 9.85742 17.8569 10.8168 17.8569 12.0003Z" fill="#202226"/>
<path d="M9.99944 12.0003C9.99944 13.1837 10.9588 14.1431 12.1423 14.1431C13.3258 14.1431 14.2852 13.1837 14.2852 12.0003C14.2852 10.8168 13.3258 9.85742 12.1423 9.85742C10.9588 9.85742 9.99944 10.8168 9.99944 12.0003Z" fill="#202226"/>
<path d="M2.143 12.0003C2.143 13.1837 3.10239 14.1431 4.28585 14.1431C5.46932 14.1431 6.42871 13.1837 6.42871 12.0003C6.42871 10.8168 5.46932 9.85742 4.28585 9.85742C3.10239 9.85742 2.143 10.8168 2.143 12.0003Z" fill="#202226"/>
</svg>
