<svg width="25" height="24" viewBox="0 0 25 24" fill="none" xmlns="http://www.w3.org/2000/svg">
<path d="M15.7908 2C14.7246 2.07375 13.4783 2.75624 12.7521 3.64499C12.0896 4.45123 11.5446 5.64872 11.7571 6.81246C12.9221 6.84871 14.1258 6.14997 14.8233 5.24622C15.4758 4.40498 15.9696 3.21499 15.7908 2Z" fill="black"/>
<path d="M20.0044 8.71037C18.9807 7.42663 17.5419 6.68164 16.1832 6.68164C14.3894 6.68164 13.6307 7.54038 12.3845 7.54038C11.0995 7.54038 10.1232 6.68414 8.57199 6.68414C7.04825 6.68414 5.42577 7.61538 4.39702 9.20787C2.95079 11.4504 3.19828 15.6666 5.54201 19.2578C6.38076 20.5428 7.50075 21.9878 8.96574 22.0003C10.2695 22.0128 10.637 21.164 12.4032 21.1553C14.1694 21.1453 14.5044 22.0115 15.8057 21.9978C17.2719 21.9865 18.4532 20.3853 19.2919 19.1003C19.8932 18.1791 20.1169 17.7153 20.5831 16.6753C17.1919 15.3841 16.6482 10.5616 20.0044 8.71037Z" fill="black"/>
</svg>
