<svg width="232" height="180" viewBox="0 0 232 180" fill="none" xmlns="http://www.w3.org/2000/svg">
<circle cx="109.5" cy="100" r="75" fill="#F3F3F3"/>
<path d="M196 8.5515L198.633 16.285L198.707 16.5022L198.919 16.5877L206.16 19.5L198.919 22.4123L198.707 22.4978L198.633 22.715L196 30.4485L193.367 22.715L193.293 22.4978L193.081 22.4123L185.84 19.5L193.081 16.5877L193.293 16.5022L193.367 16.285L196 8.5515Z" stroke="#A2A5B1"/>
<path d="M12 125.552L14.6327 133.285L14.7066 133.502L14.9195 133.588L22.1601 136.5L14.9195 139.412L14.7066 139.498L14.6327 139.715L12 147.448L9.36728 139.715L9.29335 139.498L9.08053 139.412L1.83992 136.5L9.08053 133.588L9.29335 133.502L9.36728 133.285L12 125.552Z" stroke="#A2A5B1"/>
<path d="M46 1.5515L48.6327 9.285L48.7066 9.50215L48.9195 9.58775L56.1601 12.5L48.9195 15.4123L48.7066 15.4978L48.6327 15.715L46 23.4485L43.3673 15.715L43.2934 15.4978L43.0805 15.4123L35.8399 12.5L43.0805 9.58775L43.2934 9.50215L43.3673 9.285L46 1.5515Z" stroke="#A2A5B1"/>
<path d="M156.5 21.3149L157.388 23.4747L157.475 23.6866L157.692 23.759L159.918 24.5L157.692 25.241L157.475 25.3134L157.388 25.5253L156.5 27.6851L155.612 25.5253L155.525 25.3134L155.308 25.241L153.082 24.5L155.308 23.759L155.525 23.6866L155.612 23.4747L156.5 21.3149Z" stroke="#A2A5B1"/>
<path d="M188 52.2615L188.486 53.3879L188.577 53.5974L188.794 53.6663L189.846 54L188.794 54.3337L188.577 54.4026L188.486 54.6121L188 55.7385L187.514 54.6121L187.423 54.4026L187.206 54.3337L186.154 54L187.206 53.6663L187.423 53.5974L187.514 53.3879L188 52.2615Z" stroke="#A2A5B1"/>
<path d="M196.5 97.3149L197.388 99.4747L197.475 99.6866L197.692 99.759L199.918 100.5L197.692 101.241L197.475 101.313L197.388 101.525L196.5 103.685L195.612 101.525L195.525 101.313L195.308 101.241L193.082 100.5L195.308 99.759L195.525 99.6866L195.612 99.4747L196.5 97.3149Z" stroke="#A2A5B1"/>
<path d="M228 128.262L228.486 129.388L228.577 129.597L228.794 129.666L229.846 130L228.794 130.334L228.577 130.403L228.486 130.612L228 131.738L227.514 130.612L227.423 130.403L227.206 130.334L226.154 130L227.206 129.666L227.423 129.597L227.514 129.388L228 128.262Z" stroke="#A2A5B1"/>
<path d="M189 149.262L189.486 150.388L189.577 150.597L189.794 150.666L190.846 151L189.794 151.334L189.577 151.403L189.486 151.612L189 152.738L188.514 151.612L188.423 151.403L188.206 151.334L187.154 151L188.206 150.666L188.423 150.597L188.514 150.388L189 149.262Z" stroke="#A2A5B1"/>
<path d="M101.5 8.31488L102.388 10.4747L102.475 10.6866L102.692 10.759L104.918 11.5L102.692 12.241L102.475 12.3134L102.388 12.5253L101.5 14.6851L100.612 12.5253L100.525 12.3134L100.308 12.241L98.0824 11.5L100.308 10.759L100.525 10.6866L100.612 10.4747L101.5 8.31488Z" stroke="#A2A5B1"/>
<path d="M9 63.2615L9.48627 64.3879L9.57669 64.5974L9.79415 64.6663L10.8462 65L9.79415 65.3337L9.57669 65.4026L9.48627 65.6121L9 66.7385L8.51373 65.6121L8.42331 65.4026L8.20585 65.3337L7.15383 65L8.20585 64.6663L8.42331 64.5974L8.51373 64.3879L9 63.2615Z" stroke="#A2A5B1"/>
<path d="M20 101.262L20.4863 102.388L20.5767 102.597L20.7942 102.666L21.8462 103L20.7942 103.334L20.5767 103.403L20.4863 103.612L20 104.738L19.5137 103.612L19.4233 103.403L19.2058 103.334L18.1538 103L19.2058 102.666L19.4233 102.597L19.5137 102.388L20 101.262Z" stroke="#A2A5B1"/>
<path d="M40.5 150.441L40.5713 150.633L40.651 150.849L40.8667 150.929L41.0592 151L40.8667 151.071L40.651 151.151L40.5713 151.367L40.5 151.559L40.4287 151.367L40.349 151.151L40.1333 151.071L39.9408 151L40.1333 150.929L40.349 150.849L40.4287 150.633L40.5 150.441Z" stroke="#A2A5B1"/>
<path d="M71 175.262L71.4863 176.388L71.5767 176.597L71.7942 176.666L72.8462 177L71.7942 177.334L71.5767 177.403L71.4863 177.612L71 178.738L70.5137 177.612L70.4233 177.403L70.2058 177.334L69.1538 177L70.2058 176.666L70.4233 176.597L70.5137 176.388L71 175.262Z" stroke="#A2A5B1"/>
<path d="M163.5 174.441L163.571 174.633L163.651 174.849L163.867 174.929L164.059 175L163.867 175.071L163.651 175.151L163.571 175.367L163.5 175.559L163.429 175.367L163.349 175.151L163.133 175.071L162.941 175L163.133 174.929L163.349 174.849L163.429 174.633L163.5 174.441Z" stroke="#A2A5B1"/>
<path d="M109.5 116.666C118.667 116.666 126.167 109.166 126.167 99.9997C126.167 90.833 118.667 83.333 109.5 83.333C100.333 83.333 92.8335 90.833 92.8335 99.9997C92.8335 109.166 100.333 116.666 109.5 116.666Z" stroke="#202226" stroke-width="1.5" stroke-linecap="round" stroke-linejoin="round"/>
<path d="M102.417 99.9999L107.133 104.717L116.583 95.2832" stroke="#202226" stroke-width="1.5" stroke-linecap="round" stroke-linejoin="round"/>
</svg>
