<svg width="13" height="16" viewBox="0 0 13 16" fill="none" xmlns="http://www.w3.org/2000/svg">
<path d="M6.01483 1.27725C6.06616 1.04523 6.05464 0.790165 5.86382 0.502626C5.66584 0.204437 5.34775 -0.000174472 4.98985 1.11635e-07C4.41023 0.000349278 3.94026 0.470502 3.94026 1.05029C3.94026 1.12851 3.95021 1.2041 3.96644 1.27725H2.99419C2.81734 1.27725 2.67383 1.42059 2.67383 1.59761V2.33837C2.67383 2.68701 2.95648 2.96984 3.3053 2.96984H6.6758C7.02445 2.96984 7.30727 2.68719 7.30727 2.33837V1.59761C7.30727 1.42076 7.16394 1.27725 6.98691 1.27725H6.01483Z" fill="#838383"/>
<path d="M11.6208 5.71973H5.53486C5.13367 5.71973 4.80859 6.04498 4.80859 6.44599V14.9864C4.80859 15.3876 5.13384 15.7127 5.53486 15.7127H11.6208C12.022 15.7127 12.3471 15.3875 12.3471 14.9864V6.44599C12.3471 6.04498 12.022 5.71973 11.6208 5.71973ZM8.65903 13.1757H6.38648C6.19374 13.1757 6.03731 13.0192 6.03731 12.8265C6.03731 12.6338 6.19374 12.4773 6.38648 12.4773H8.6592C8.85194 12.4773 9.00837 12.6338 9.00837 12.8265C9.00837 13.0192 8.85194 13.1757 8.65903 13.1757ZM10.7692 11.0655H6.38648C6.19374 11.0655 6.03731 10.909 6.03731 10.7163C6.03731 10.5236 6.19374 10.3671 6.38648 10.3671H10.7692C10.962 10.3671 11.1184 10.5236 11.1184 10.7163C11.1184 10.909 10.9621 11.0655 10.7692 11.0655ZM10.7692 8.95528H6.38648C6.19374 8.95528 6.03731 8.79885 6.03731 8.60611C6.03731 8.41337 6.19374 8.25695 6.38648 8.25695H10.7692C10.962 8.25695 11.1184 8.41337 11.1184 8.60611C11.1184 8.79885 10.9621 8.95528 10.7692 8.95528Z" fill="#838383"/>
<path d="M9.27631 1.91992H8.00622V2.3384C8.00622 3.07165 7.40967 3.6682 6.67659 3.6682H3.30591C2.57266 3.6682 1.97611 3.07165 1.97611 2.3384V1.91992H0.706015C0.316171 1.91992 0 2.23609 0 2.62594V13.7403C0 14.1301 0.316171 14.4463 0.706015 14.4463H4.11074V6.44582C4.11074 5.6602 4.74989 5.02105 5.53534 5.02105H9.98215V2.62576C9.98233 2.23609 9.66616 1.91992 9.27631 1.91992Z" fill="#838383"/>
</svg>
