<svg width="24" height="24" viewBox="0 0 24 24" fill="none" xmlns="http://www.w3.org/2000/svg">
<g clip-path="url(#clip0_1155_1639)">
<path d="M18.2997 16.359H5.64353V17.8974H18.2997V16.359ZM17.6896 8.79842L18.0434 11.9209L19.5721 11.7478L19.2184 8.62524L17.6896 8.79842ZM5.89979 11.9209L6.25351 8.79842L4.72482 8.62524L4.37111 11.7478L5.89979 11.9209ZM4.81986 14.4264C5.41951 13.7205 5.79492 12.8467 5.89979 11.9209L4.37111 11.7478C4.30019 12.3738 4.04667 12.9603 3.64742 13.4302L4.81986 14.4264ZM18.0434 11.9209C18.1483 12.8467 18.5237 13.7205 19.1233 14.4264L20.2958 13.4302C19.8965 12.9603 19.643 12.3738 19.5721 11.7478L18.0434 11.9209ZM5.64353 16.359C4.73399 16.359 4.15545 15.2083 4.81986 14.4264L3.64742 13.4302C2.19201 15.1433 3.33393 17.8974 5.64353 17.8974V16.359ZM18.2997 17.8974C20.6092 17.8974 21.7512 15.1433 20.2958 13.4302L19.1233 14.4264C19.7877 15.2083 19.2092 16.359 18.2997 16.359V17.8974ZM19.2184 8.62524C18.7925 4.86639 15.6925 2 11.9716 2V3.53846C14.8744 3.53846 17.3479 5.78152 17.6896 8.79842L19.2184 8.62524ZM6.25351 8.79842C6.59526 5.78152 9.06879 3.53846 11.9716 3.53846V2C8.25069 2 5.15063 4.86639 4.72482 8.62524L6.25351 8.79842Z" fill="#838383"/>
<path d="M15.7686 19.4496C15.9177 19.0517 15.7161 18.6084 15.3182 18.4593C14.9204 18.3102 14.4771 18.5118 14.328 18.9097L15.7686 19.4496ZM9.61475 18.9097C9.46566 18.5118 9.02231 18.3102 8.62449 18.4593C8.22667 18.6084 8.02504 19.0517 8.17413 19.4496L9.61475 18.9097ZM14.328 18.9097C13.997 19.7928 13.0838 20.4617 11.9714 20.4617V22.0001C13.7001 22.0001 15.2038 20.9565 15.7686 19.4496L14.328 18.9097ZM11.9714 20.4617C10.859 20.4617 9.94572 19.7928 9.61475 18.9097L8.17413 19.4496C8.7389 20.9565 10.2426 22.0001 11.9714 22.0001V20.4617Z" fill="#838383"/>
<circle cx="17" cy="4" r="4" fill="#F36445"/>
</g>
<defs>
<clipPath id="clip0_1155_1639">
<rect width="24" height="24" fill="white"/>
</clipPath>
</defs>
</svg>
