<svg width="56" height="56" viewBox="0 0 56 56" fill="none" xmlns="http://www.w3.org/2000/svg">
<g filter="url(#filter0_d_1156_6216)">
<rect x="4.5" y="0.5" width="47" height="47" rx="23.5" stroke="#EDEDED" shape-rendering="crispEdges"/>
<path d="M36.4847 17.2199C34.3071 14.674 30.6017 14.3198 27.9995 16.2C23.8115 13.1867 18.0175 16.2035 18 21.3033C18 24.9812 19.9545 27.9678 22.8047 30.2233C25.1098 32.0474 27.4224 32.9371 27.6794 33.0329C27.8757 33.1075 28.1146 33.1112 28.3214 33.0326C28.5775 32.9372 30.8898 32.0477 33.195 30.2235C36.0459 27.9676 38 24.9815 38 21.3012C37.9949 19.8057 37.4567 18.3563 36.4847 17.2199ZM27.9999 31.7884C26.8828 31.3449 19.2765 28.0757 19.2765 21.3055C19.2911 17.0264 24.3346 14.7158 27.5851 17.496C27.8239 17.7004 28.176 17.7004 28.4148 17.496C31.6968 14.6887 36.7081 17.063 36.7235 21.3043C36.7225 28.0708 29.1289 31.3399 27.9999 31.7884Z" fill="#202226"/>
<path d="M34.0026 18.9342C33.7032 19.1203 33.6114 19.5138 33.7974 19.8131C34.3424 20.69 34.4312 22.0021 34.041 23.4127C33.9285 23.8194 34.2351 24.2213 34.6565 24.2213C34.9363 24.2213 35.193 24.0359 35.2712 23.7531C35.7633 21.974 35.6249 20.3355 34.8816 19.1394C34.6956 18.84 34.302 18.748 34.0026 18.9342Z" fill="#202226"/>
<path d="M32.8922 17.5831C32.5732 17.4802 32.2307 17.4156 31.8743 17.3912C31.5227 17.367 31.218 17.6326 31.1939 17.9843C31.1698 18.336 31.4354 18.6406 31.787 18.6646C32.04 18.682 32.2798 18.7268 32.5002 18.7979C32.8367 18.9065 33.1957 18.7208 33.3036 18.3865C33.4118 18.0511 33.2277 17.6914 32.8922 17.5831Z" fill="#202226"/>
</g>
<defs>
<filter id="filter0_d_1156_6216" x="0" y="0" width="56" height="56" filterUnits="userSpaceOnUse" color-interpolation-filters="sRGB">
<feFlood flood-opacity="0" result="BackgroundImageFix"/>
<feColorMatrix in="SourceAlpha" type="matrix" values="0 0 0 0 0 0 0 0 0 0 0 0 0 0 0 0 0 0 127 0" result="hardAlpha"/>
<feOffset dy="4"/>
<feGaussianBlur stdDeviation="2"/>
<feComposite in2="hardAlpha" operator="out"/>
<feColorMatrix type="matrix" values="0 0 0 0 0 0 0 0 0 0 0 0 0 0 0 0 0 0 0.25 0"/>
<feBlend mode="normal" in2="BackgroundImageFix" result="effect1_dropShadow_1156_6216"/>
<feBlend mode="normal" in="SourceGraphic" in2="effect1_dropShadow_1156_6216" result="shape"/>
</filter>
</defs>
</svg>
