<svg width="59" height="106" viewBox="0 0 59 106" fill="none" xmlns="http://www.w3.org/2000/svg">
<path d="M22.0985 48.3295C20.1937 46.3133 18.3947 44.4032 16.5746 42.4719C12.9343 38.6306 9.25162 34.8104 5.61132 30.969C-3.63759 21.1853 -0.124272 5.41662 12.3204 1.08715C17.9714 -0.886589 23.3684 -0.165009 28.3633 3.18822C28.6172 3.35801 28.8923 3.549 29.1887 3.76124C31.6861 1.85117 34.501 0.726355 37.591 0.217004C44.406 -0.907813 52.0252 2.82743 55.4961 8.8123C59.4117 15.5824 58.9883 24.9205 52.0464 31.818C46.8821 36.9327 41.9931 42.3233 36.9771 47.5866C36.7655 47.8201 36.5539 48.0535 36.4481 48.1808C38.3741 50.1758 40.2577 52.1283 42.099 54.102C46.4589 58.7711 50.2685 63.8222 52.8083 69.7646C59.3692 85.0876 50.4167 102.193 34.0988 105.504C19.9185 108.369 5.90763 98.5005 3.64302 84.1538C2.5848 77.3625 4.32028 71.2714 7.64312 65.4776C11.0929 59.4715 15.6434 54.378 20.6382 49.6452C21.125 49.2421 21.5694 48.8388 22.0985 48.3295ZM29.2945 54.7176C23.8975 59.238 17.7175 66.1779 14.8179 72.184C12.4687 77.0229 12.0877 81.8829 14.31 86.8915C17.7809 94.7016 27.1357 98.5429 35.0936 95.3808C43.3054 92.1336 47.6018 83.1351 44.6599 74.9218C41.6758 66.6024 35.5592 60.6176 29.2945 54.7176ZM29.1887 17.9594C28.5961 17.2378 28.0881 16.5799 27.5378 15.9433C26.1621 14.3302 24.9558 12.5264 23.3472 11.1893C19.9821 8.36662 14.945 8.93963 11.9818 12.208C8.91299 15.6249 8.91299 20.8032 12.0877 24.1777C15.855 28.1889 19.6857 32.1576 23.4743 36.1475C25.379 38.1424 27.2627 40.1374 29.2521 42.2384C29.5273 41.8988 29.739 41.6018 29.9718 41.347C35.3898 35.6381 40.808 29.9291 46.2261 24.2201C49.7606 20.4849 49.4431 14.8184 45.5277 11.4015C42.2472 8.5364 36.4481 8.6213 33.3581 12.8234C32.067 14.585 30.6279 16.2191 29.1887 17.9594Z" fill="#202226"/>
<path d="M36.321 80.4611C36.321 84.4934 33.1674 87.6557 29.1885 87.6769C25.2731 87.6981 21.9714 84.4085 21.9503 80.4823C21.9292 76.5136 25.2731 73.1816 29.2309 73.224C33.231 73.2452 36.321 76.4075 36.321 80.4611Z" fill="#202226"/>
</svg>
