<svg width="24" height="24" viewBox="0 0 24 24" fill="none" xmlns="http://www.w3.org/2000/svg">
<path d="M6.92197 3.15064C6.80837 3.22504 6.66544 3.23384 6.53531 3.2733C6.40544 3.31304 6.27051 3.40984 6.27051 3.54584C6.27051 3.6485 6.35157 3.73704 6.44571 3.77784C6.53984 3.81864 6.64571 3.8213 6.74837 3.82344C6.92677 3.82717 7.10517 3.8309 7.28384 3.83464C7.37557 3.8365 7.47131 3.83757 7.55344 3.7965C7.72784 3.70877 7.76331 3.4797 7.77691 3.28504C7.78917 3.1085 7.80144 2.9285 7.75931 2.7565C7.70037 2.5149 7.48757 2.24504 7.27051 2.48237C7.09637 2.67224 7.16704 2.99037 6.92197 3.15064Z" fill="#9DB2CE"/>
<path d="M15.4332 20.3013C15.4039 20.3224 15.3732 20.3437 15.3551 20.3752C15.322 20.4328 15.3412 20.5064 15.3738 20.5642C15.5226 20.828 15.8804 20.8805 16.1818 20.8493C16.266 20.8405 16.3522 20.8269 16.4263 20.7858C16.5058 20.7416 16.5655 20.6693 16.6202 20.5965C17.0306 20.0474 17.2567 19.3629 17.2538 18.6776C17.2535 18.6328 17.2495 18.5818 17.2146 18.5541C17.1786 18.5253 17.126 18.5341 17.0818 18.5472C16.689 18.6632 16.4676 18.9282 16.2959 19.2717C16.0922 19.6784 15.8047 20.0349 15.4332 20.3013Z" fill="#9DB2CE"/>
<path d="M5.91949 21.7373C3.48909 20.2165 1.66909 17.8111 0.910156 14.9719C2.08936 15.5399 2.59416 16.517 3.82402 16.965C4.44376 17.1906 5.10456 17.425 5.51336 17.9429C5.95309 18.4997 6.00402 19.2866 5.81869 19.9714C5.63336 20.6562 6.30616 21.1413 5.92002 21.7365L5.91949 21.7373Z" fill="#9DB2CE"/>
<path d="M11.9995 0.521851C11.6507 0.521851 11.3057 0.537317 10.9649 0.567717V0.567984C10.5777 0.978117 9.59046 1.13625 9.26326 1.83198C9.21126 1.94265 9.15739 2.05892 9.16486 2.18078C9.17526 2.34638 9.30139 2.48745 9.45073 2.55945C9.60006 2.63145 9.77019 2.64612 9.93579 2.65145C10.063 2.65572 10.1915 2.65492 10.3163 2.62958C10.5139 2.58958 10.6001 2.42665 10.7379 2.27945C10.8326 2.09332 11.0902 1.62585 11.2225 1.46398C11.5305 1.08745 11.3641 1.30985 12.0761 1.31598L12.0763 1.57705C11.7718 2.14532 11.5593 2.29652 11.459 2.73972C11.3995 3.00212 11.3342 3.27678 11.155 3.47758C10.9545 3.70238 10.0723 3.50825 9.77579 3.56105C9.17099 3.66905 9.10033 3.97438 8.50219 3.83492C8.53686 4.67358 8.50886 4.38345 8.20459 5.16585C7.77126 5.18852 7.05606 5.30158 6.66779 5.49518C6.48806 5.58505 6.58966 6.28398 6.53766 6.47785C6.48779 6.66398 6.58166 6.86718 6.73126 6.98905C6.88059 7.11065 7.07553 7.16238 7.26699 7.18398C7.73313 7.23625 8.21633 7.12238 8.60993 6.86718C8.86699 6.70052 9.08726 6.47598 9.36273 6.34185C9.63819 6.20772 10.3233 6.10985 10.5342 6.33198C10.7678 6.57785 10.6787 7.44105 11.007 7.52585C11.2686 7.59332 11.2617 7.03012 11.3966 6.79625C11.5318 6.56238 11.7153 6.28745 11.9846 6.30558C12.1105 6.31412 12.2214 6.38905 12.3179 6.47012C12.6217 6.72505 12.4947 7.48772 12.8907 7.47198C13.1054 7.46345 13.4779 7.15785 13.7505 6.87892C13.9195 7.07305 13.4163 7.99812 13.6598 8.07998C13.9054 8.16238 15.2555 7.64292 15.423 7.84078C15.4691 7.89518 15.5126 7.95652 15.5219 8.02718C15.5417 8.17758 15.4049 8.30052 15.2734 8.37652C14.7846 8.65918 14.4302 8.78238 13.9209 9.02612C11.8006 10.0408 11.0219 7.99758 7.69899 7.89198C6.65313 8.11332 6.83873 8.54478 6.25819 8.98558C5.86486 9.28425 5.73099 9.53998 5.51046 9.98158C5.13606 10.7307 5.39233 11.6397 5.76779 12.3883C6.02593 12.9032 6.35953 13.4123 6.86566 13.6877C7.13446 13.8341 7.43633 13.9059 7.73419 13.976C8.18273 14.0816 8.63126 14.1875 9.07979 14.2931C9.27019 14.3379 9.46779 14.3861 9.61953 14.5096C9.77819 14.6387 9.86646 14.8328 9.94939 15.0197C10.1273 15.4213 10.3065 15.8259 10.4075 16.2536C10.4926 16.6131 10.5219 16.9851 10.6267 17.3392C10.8425 18.0667 11.3625 19.5325 11.5977 20.2541C11.6561 20.4331 11.6974 20.6203 11.7907 20.7837C11.9035 20.9813 12.0891 21.1331 12.2993 21.2203C12.7001 21.3861 13.1683 21.3157 13.5585 21.1264C13.9486 20.9371 14.275 19.7792 14.5883 19.4792C15.539 18.5683 16.4633 17.5139 16.6942 16.2176C16.7505 15.9019 16.7694 15.5627 16.9534 15.3C17.1347 15.0413 17.4409 14.9072 17.6966 14.7216C18.0126 14.4923 18.2611 14.1709 18.4035 13.8072C18.4753 13.6237 18.5206 13.4197 18.4662 13.2304C18.3433 12.8019 17.8193 12.6707 17.4278 12.4579C18.2097 12.0272 19.2459 11.7915 20.0278 11.3611C20.2139 11.2587 20.403 11.1539 20.551 11.0013C20.6174 10.9328 20.6777 10.8464 20.6731 10.7509C20.6702 10.6899 20.6411 10.6336 20.6126 10.5797C20.4225 10.2221 20.247 10.228 20.0366 9.88185L20.035 9.87758C20.2123 9.88825 20.3902 9.89092 20.567 9.87892C21.0369 9.84692 21.5825 9.77092 21.9129 10.1069C22.2102 10.4093 22.175 10.8909 22.2067 11.3139C22.2446 11.8165 22.4158 12.3221 22.7598 12.6907C23.1041 13.0592 22.8857 13.6365 23.3769 13.5221H23.3777C23.4435 13.0245 23.4777 12.5165 23.4777 12.0008C23.4777 5.66078 18.3387 0.521851 11.9995 0.521851ZM14.9486 6.99518C14.6574 6.98078 14.0126 6.74692 13.7515 6.87758C13.8817 6.74425 13.9891 6.61705 14.0451 6.53092C14.2187 6.26478 14.3662 5.96398 14.6318 5.78958C14.9433 5.58505 15.3569 5.60158 15.7078 5.72718C15.9566 5.81625 16.2097 5.98638 16.259 6.24612C16.3134 6.53305 16.0854 6.81198 15.8142 6.92052C15.5427 7.02878 15.2401 7.00958 14.9486 6.99518Z" fill="#9DB2CE"/>
<path d="M12 24C9.74427 24 7.54587 23.3704 5.64293 22.1795C3.05173 20.5579 1.192 18.0461 0.406133 15.1067C0.1368 14.0981 0 13.0528 0 12C0 5.7424 4.69387 0.604267 10.9187 0.048C11.2757 0.0162667 11.6395 0 12 0C18.6168 0 24 5.3832 24 12C24 12.5304 23.9648 13.0653 23.8955 13.5893C23.1099 19.5245 17.996 24 12 24ZM12 1.04347C11.6704 1.04347 11.3379 1.05813 11.0115 1.08747C5.3288 1.5952 1.04347 6.28667 1.04347 12C1.04347 12.9619 1.16827 13.9165 1.41413 14.8373C2.13147 17.5208 3.82987 19.8141 6.19627 21.2952C7.93333 22.3821 9.94027 22.9565 12 22.9565C17.4744 22.9565 22.1437 18.8707 22.8613 13.4525C22.9245 12.9736 22.9565 12.4851 22.9565 12C22.9565 5.95867 18.0416 1.04347 12 1.04347Z" fill="#9DB2CE"/>
</svg>
