<svg width="24" height="24" viewBox="0 0 24 24" fill="none" xmlns="http://www.w3.org/2000/svg">
<path d="M6.92197 3.15076C6.80837 3.22516 6.66544 3.23396 6.53531 3.27343C6.40544 3.31316 6.27051 3.40996 6.27051 3.54596C6.27051 3.64863 6.35157 3.73716 6.44571 3.77796C6.53984 3.81876 6.64571 3.82143 6.74837 3.82356C6.92677 3.82729 7.10517 3.83103 7.28384 3.83476C7.37557 3.83663 7.47131 3.83769 7.55344 3.79663C7.72784 3.70889 7.76331 3.47983 7.77691 3.28516C7.78917 3.10863 7.80144 2.92863 7.75931 2.75663C7.70037 2.51503 7.48757 2.24516 7.27051 2.48249C7.09637 2.67236 7.16704 2.99049 6.92197 3.15076Z" fill="white"/>
<path d="M15.4332 20.3015C15.4039 20.3226 15.3732 20.3439 15.3551 20.3754C15.322 20.433 15.3412 20.5066 15.3738 20.5645C15.5226 20.8282 15.8804 20.8807 16.1818 20.8495C16.266 20.8407 16.3522 20.8271 16.4263 20.7861C16.5058 20.7418 16.5655 20.6695 16.6202 20.5967C17.0306 20.0477 17.2567 19.3631 17.2538 18.6778C17.2535 18.633 17.2495 18.5821 17.2146 18.5543C17.1786 18.5255 17.126 18.5343 17.0818 18.5474C16.689 18.6634 16.4676 18.9285 16.2959 19.2719C16.0922 19.6786 15.8047 20.0351 15.4332 20.3015Z" fill="white"/>
<path d="M5.91949 21.737C3.48909 20.2162 1.66909 17.8109 0.910156 14.9717C2.08936 15.5397 2.59416 16.5167 3.82402 16.9647C4.44376 17.1903 5.10456 17.4247 5.51336 17.9426C5.95309 18.4994 6.00402 19.2863 5.81869 19.9711C5.63336 20.6559 6.30616 21.141 5.92002 21.7362L5.91949 21.737Z" fill="white"/>
<path d="M11.9995 0.521484C11.6507 0.521484 11.3057 0.536951 10.9649 0.567351V0.567618C10.5777 0.977751 9.59046 1.13588 9.26326 1.83162C9.21126 1.94228 9.15739 2.05855 9.16486 2.18042C9.17526 2.34602 9.30139 2.48708 9.45073 2.55908C9.60006 2.63108 9.77019 2.64575 9.93579 2.65108C10.063 2.65535 10.1915 2.65455 10.3163 2.62922C10.5139 2.58922 10.6001 2.42628 10.7379 2.27908C10.8326 2.09295 11.0902 1.62548 11.2225 1.46362C11.5305 1.08708 11.3641 1.30948 12.0761 1.31562L12.0763 1.57668C11.7718 2.14495 11.5593 2.29615 11.459 2.73935C11.3995 3.00175 11.3342 3.27642 11.155 3.47722C10.9545 3.70202 10.0723 3.50788 9.77579 3.56068C9.17099 3.66868 9.10033 3.97402 8.50219 3.83455C8.53686 4.67322 8.50886 4.38308 8.20459 5.16548C7.77126 5.18815 7.05606 5.30122 6.66779 5.49482C6.48806 5.58468 6.58966 6.28362 6.53766 6.47748C6.48779 6.66362 6.58166 6.86682 6.73126 6.98868C6.88059 7.11028 7.07553 7.16202 7.26699 7.18362C7.73313 7.23588 8.21633 7.12202 8.60993 6.86682C8.86699 6.70015 9.08726 6.47562 9.36273 6.34148C9.63819 6.20735 10.3233 6.10948 10.5342 6.33162C10.7678 6.57748 10.6787 7.44068 11.007 7.52548C11.2686 7.59295 11.2617 7.02975 11.3966 6.79588C11.5318 6.56202 11.7153 6.28708 11.9846 6.30522C12.1105 6.31375 12.2214 6.38868 12.3179 6.46975C12.6217 6.72468 12.4947 7.48735 12.8907 7.47162C13.1054 7.46308 13.4779 7.15748 13.7505 6.87855C13.9195 7.07268 13.4163 7.99775 13.6598 8.07962C13.9054 8.16202 15.2555 7.64255 15.423 7.84042C15.4691 7.89482 15.5126 7.95615 15.5219 8.02682C15.5417 8.17722 15.4049 8.30015 15.2734 8.37615C14.7846 8.65882 14.4302 8.78202 13.9209 9.02575C11.8006 10.0404 11.0219 7.99722 7.69899 7.89162C6.65313 8.11295 6.83873 8.54442 6.25819 8.98522C5.86486 9.28388 5.73099 9.53962 5.51046 9.98122C5.13606 10.7303 5.39233 11.6394 5.76779 12.3879C6.02593 12.9028 6.35953 13.4119 6.86566 13.6874C7.13446 13.8338 7.43633 13.9055 7.73419 13.9756C8.18273 14.0812 8.63126 14.1871 9.07979 14.2927C9.27019 14.3375 9.46779 14.3858 9.61953 14.5092C9.77819 14.6383 9.86646 14.8324 9.94939 15.0194C10.1273 15.421 10.3065 15.8255 10.4075 16.2532C10.4926 16.6127 10.5219 16.9847 10.6267 17.3388C10.8425 18.0663 11.3625 19.5322 11.5977 20.2538C11.6561 20.4327 11.6974 20.6199 11.7907 20.7834C11.9035 20.981 12.0891 21.1327 12.2993 21.2199C12.7001 21.3858 13.1683 21.3154 13.5585 21.126C13.9486 20.9367 14.275 19.7788 14.5883 19.4788C15.539 18.5679 16.4633 17.5135 16.6942 16.2172C16.7505 15.9015 16.7694 15.5623 16.9534 15.2996C17.1347 15.041 17.4409 14.9068 17.6966 14.7212C18.0126 14.4919 18.2611 14.1706 18.4035 13.8068C18.4753 13.6234 18.5206 13.4194 18.4662 13.23C18.3433 12.8015 17.8193 12.6703 17.4278 12.4575C18.2097 12.0268 19.2459 11.7911 20.0278 11.3607C20.2139 11.2583 20.403 11.1535 20.551 11.001C20.6174 10.9324 20.6777 10.846 20.6731 10.7506C20.6702 10.6895 20.6411 10.6332 20.6126 10.5794C20.4225 10.2218 20.247 10.2276 20.0366 9.88148L20.035 9.87722C20.2123 9.88789 20.3902 9.89055 20.567 9.87855C21.0369 9.84655 21.5825 9.77055 21.9129 10.1066C22.2102 10.409 22.175 10.8906 22.2067 11.3135C22.2446 11.8162 22.4158 12.3218 22.7598 12.6903C23.1041 13.0588 22.8857 13.6362 23.3769 13.5218H23.3777C23.4435 13.0242 23.4777 12.5162 23.4777 12.0004C23.4777 5.66042 18.3387 0.521484 11.9995 0.521484ZM14.9486 6.99482C14.6574 6.98042 14.0126 6.74655 13.7515 6.87722C13.8817 6.74388 13.9891 6.61668 14.0451 6.53055C14.2187 6.26442 14.3662 5.96362 14.6318 5.78922C14.9433 5.58468 15.3569 5.60122 15.7078 5.72682C15.9566 5.81588 16.2097 5.98602 16.259 6.24575C16.3134 6.53268 16.0854 6.81162 15.8142 6.92015C15.5427 7.02842 15.2401 7.00922 14.9486 6.99482Z" fill="white"/>
<path d="M12 24C9.74427 24 7.54587 23.3704 5.64293 22.1795C3.05173 20.5579 1.192 18.0461 0.406133 15.1067C0.1368 14.0981 0 13.0528 0 12C0 5.7424 4.69387 0.604267 10.9187 0.048C11.2757 0.0162667 11.6395 0 12 0C18.6168 0 24 5.3832 24 12C24 12.5304 23.9648 13.0653 23.8955 13.5893C23.1099 19.5245 17.996 24 12 24ZM12 1.04347C11.6704 1.04347 11.3379 1.05813 11.0115 1.08747C5.3288 1.5952 1.04347 6.28667 1.04347 12C1.04347 12.9619 1.16827 13.9165 1.41413 14.8373C2.13147 17.5208 3.82987 19.8141 6.19627 21.2952C7.93333 22.3821 9.94027 22.9565 12 22.9565C17.4744 22.9565 22.1437 18.8707 22.8613 13.4525C22.9245 12.9736 22.9565 12.4851 22.9565 12C22.9565 5.95867 18.0416 1.04347 12 1.04347Z" fill="white"/>
</svg>
