<svg width="24" height="24" viewBox="0 0 24 24" fill="none" xmlns="http://www.w3.org/2000/svg">
<path d="M18.2997 16.359H5.64353V17.8974H18.2997V16.359ZM17.6896 8.79842L18.0434 11.9209L19.5721 11.7478L19.2184 8.62524L17.6896 8.79842ZM5.89979 11.9209L6.25351 8.79842L4.72482 8.62524L4.37111 11.7478L5.89979 11.9209ZM4.81986 14.4264C5.41951 13.7205 5.79492 12.8467 5.89979 11.9209L4.37111 11.7478C4.30019 12.3738 4.04667 12.9603 3.64742 13.4302L4.81986 14.4264ZM18.0434 11.9209C18.1483 12.8467 18.5237 13.7205 19.1233 14.4264L20.2958 13.4302C19.8965 12.9603 19.643 12.3738 19.5721 11.7478L18.0434 11.9209ZM5.64353 16.359C4.73399 16.359 4.15545 15.2083 4.81986 14.4264L3.64742 13.4302C2.19201 15.1433 3.33393 17.8974 5.64353 17.8974V16.359ZM18.2997 17.8974C20.6092 17.8974 21.7512 15.1433 20.2958 13.4302L19.1233 14.4264C19.7877 15.2083 19.2092 16.359 18.2997 16.359V17.8974ZM19.2184 8.62524C18.7925 4.86639 15.6925 2 11.9716 2V3.53846C14.8744 3.53846 17.3479 5.78152 17.6896 8.79842L19.2184 8.62524ZM6.25351 8.79842C6.59526 5.78152 9.06879 3.53846 11.9716 3.53846V2C8.25069 2 5.15063 4.86639 4.72482 8.62524L6.25351 8.79842Z" fill="#9DB2CE"/>
<path d="M15.7688 19.4494C15.9179 19.0516 15.7163 18.6083 15.3184 18.4592C14.9206 18.3101 14.4773 18.5117 14.3282 18.9095L15.7688 19.4494ZM9.61496 18.9095C9.46587 18.5117 9.02252 18.3101 8.6247 18.4592C8.22689 18.6083 8.02526 19.0516 8.17434 19.4494L9.61496 18.9095ZM14.3282 18.9095C13.9972 19.7927 13.084 20.4615 11.9716 20.4615V22C13.7003 22 15.204 20.9564 15.7688 19.4494L14.3282 18.9095ZM11.9716 20.4615C10.8592 20.4615 9.94593 19.7927 9.61496 18.9095L8.17434 19.4494C8.73911 20.9564 10.2429 22 11.9716 22V20.4615Z" fill="#9DB2CE"/>
</svg>
