<svg width="24" height="24" viewBox="0 0 24 24" fill="none" xmlns="http://www.w3.org/2000/svg">
<g clip-path="url(#clip0_2314_2313)">
<path d="M17.916 16.5707H4.65337C4.23671 16.5902 3.82905 16.4481 3.51932 16.1754C3.20958 15.9027 3.0229 15.5216 3 15.115C3.00543 14.7114 3.1064 14.3145 3.29502 13.9553C3.48364 13.5961 3.7548 13.2843 4.08732 13.0443C4.20877 12.9565 4.3078 12.8424 4.37667 12.7111C4.44555 12.5798 4.4824 12.4347 4.48437 12.2872V7.98967C4.48437 4.68681 7.53863 1.99902 11.2882 1.99902C15.0378 1.99902 18.0911 4.68184 18.0911 7.98967V12.2862C18.0931 12.4337 18.13 12.5787 18.1989 12.7101C18.2678 12.8414 18.3667 12.9554 18.4881 13.0433C19.1764 13.561 20 14.0638 20 14.8617C20 15.6596 18.8272 16.5707 17.916 16.5707Z" fill="white"/>
<path d="M7.92456 17.218C7.92456 17.224 7.92456 17.2289 7.92456 17.2349C7.92456 18.7015 9.42929 19.8899 11.2842 19.8899C13.1392 19.8899 14.6439 18.6975 14.6439 17.2349C14.6439 17.2289 14.6439 17.224 14.6439 17.218" fill="white"/>
</g>
<defs>
<clipPath id="clip0_2314_2313">
<rect width="19" height="20" fill="white" transform="translate(3 2)"/>
</clipPath>
</defs>
</svg>
