<svg width="50" height="49" viewBox="0 0 50 49" fill="none" xmlns="http://www.w3.org/2000/svg">
<path d="M25.0002 48.2875C38.3344 48.2875 49.144 37.478 49.144 24.1438C49.144 10.8095 38.3344 0 25.0002 0C11.666 0 0.856445 10.8095 0.856445 24.1438C0.856445 37.478 11.666 48.2875 25.0002 48.2875Z" fill="#28C937"/>
<path d="M21.5008 34.606C21.4955 34.606 21.4901 34.606 21.4853 34.606C20.7878 34.6012 20.1263 34.2953 19.6713 33.7674L12.44 25.3691C11.5697 24.3588 11.6835 22.834 12.6943 21.9638C13.7051 21.0941 15.2294 21.2078 16.0996 22.2181L21.525 28.5191L33.922 14.4969C34.8046 13.4979 36.3305 13.404 37.33 14.2871C38.329 15.1703 38.4229 16.6962 37.5398 17.6952L23.3106 33.791C22.8513 34.3093 22.1924 34.606 21.5008 34.606Z" fill="white"/>
</svg>
