<svg width="48" height="48" viewBox="0 0 48 48" fill="none" xmlns="http://www.w3.org/2000/svg">
<rect x="0.5" y="0.5" width="47" height="47" rx="23.5" stroke="#EDEDED"/>
<path d="M32.4847 17.2199C30.3071 14.674 26.6017 14.3198 23.9995 16.2C19.8115 13.1867 14.0175 16.2035 14 21.3033C14 24.9812 15.9545 27.9678 18.8047 30.2233C21.1098 32.0474 23.4224 32.9371 23.6794 33.0329C23.8757 33.1075 24.1146 33.1112 24.3214 33.0326C24.5775 32.9372 26.8898 32.0477 29.195 30.2235C32.0459 27.9676 34 24.9815 34 21.3012C33.9949 19.8057 33.4567 18.3563 32.4847 17.2199ZM29.3037 18.3868C29.1958 18.7212 28.8368 18.9067 28.5003 18.7981C28.2801 18.7271 28.0401 18.6822 27.7872 18.6649C27.4356 18.6408 27.17 18.3362 27.1941 17.9846C27.2182 17.6329 27.5228 17.3673 27.8745 17.3915C28.2309 17.4159 28.5734 17.4804 28.8924 17.5834C29.2278 17.6917 29.412 18.0513 29.3037 18.3868ZM31.2707 23.7526C31.1771 24.0913 30.8261 24.2919 30.4854 24.1976C30.1457 24.1037 29.9465 23.7521 30.0405 23.4123C30.4307 22.0016 30.3419 20.6896 29.7969 19.8127C29.6109 19.5133 29.7027 19.1198 30.0021 18.9337C30.3015 18.7476 30.695 18.8396 30.8811 19.1389C31.6244 20.335 31.7628 21.9735 31.2707 23.7526Z" fill="#EA3434"/>
</svg>
