<svg width="44" height="44" viewBox="0 0 44 44" fill="none" xmlns="http://www.w3.org/2000/svg">
<rect x="0.5" y="0.5" width="43" height="43" rx="21.5" stroke="#EDEDED"/>
<path d="M30.4847 15.2199C28.3071 12.674 24.6017 12.3198 21.9995 14.2C17.8115 11.1867 12.0175 14.2035 12 19.3033C12 22.9812 13.9545 25.9678 16.8047 28.2233C19.1098 30.0474 21.4224 30.9371 21.6794 31.0329C21.8757 31.1075 22.1146 31.1112 22.3214 31.0326C22.5775 30.9372 24.8898 30.0477 27.195 28.2235C30.0459 25.9676 32 22.9815 32 19.3012C31.9949 17.8057 31.4567 16.3563 30.4847 15.2199ZM21.9999 29.7884C20.8828 29.3449 13.2765 26.0757 13.2765 19.3055C13.2911 15.0264 18.3346 12.7158 21.5851 15.496C21.8239 15.7004 22.176 15.7004 22.4148 15.496C25.6968 12.6887 30.7081 15.063 30.7235 19.3043C30.7225 26.0708 23.1289 29.3399 21.9999 29.7884Z" fill="white"/>
<path d="M28.0026 16.9342C27.7032 17.1203 27.6114 17.5138 27.7974 17.8131C28.3424 18.69 28.4312 20.0021 28.041 21.4127C27.9285 21.8194 28.2351 22.2213 28.6565 22.2213C28.9363 22.2213 29.193 22.0359 29.2712 21.7531C29.7633 19.974 29.6249 18.3355 28.8816 17.1394C28.6956 16.84 28.302 16.748 28.0026 16.9342Z" fill="white"/>
<path d="M26.8922 15.5831C26.5732 15.4802 26.2307 15.4156 25.8743 15.3912C25.5227 15.367 25.218 15.6326 25.1939 15.9843C25.1698 16.336 25.4354 16.6406 25.787 16.6646C26.04 16.682 26.2798 16.7268 26.5002 16.7979C26.8367 16.9065 27.1957 16.7208 27.3036 16.3865C27.4118 16.0511 27.2277 15.6914 26.8922 15.5831Z" fill="white"/>
</svg>
